<svg version="1.1" width="500" height="500" xmlns="http://www.w3.org/2000/svg"><path d="M0 250L5 225.04164583829296L10 200.3326673012347L15 176.11994833466508L20 152.64541442283738L25 130.14361534894925L30 108.83938165124113L35 88.94557819057721L40 70.66097727511931L45 54.16827259312916L50 39.632253798025886L55 27.198159984641137L60 16.99022850819341L65 9.110453645701767L70 3.6375675028849344L75 0.6262533489863813L80 0.10659923962373341L85 2.08379738688285L90 6.538092280451224L95 13.424978078146381L100 22.675643293579583L105 34.197658337781576L110 47.87589904510247L115 63.57369695582L120 81.13420486221236L125 100.38196397401089L130 121.12465704463395L135 143.15502994154255L140 166.25296246102383L145 190.1876676965045L150 214.7199979850332L155 239.60483439167737L160 264.593535856895L165 289.43642353581214L170 313.8852755067079L175 337.6958069224049L180 360.6301108237131L185 382.4590352271233L190 402.9644727356798L195 421.94153979599355L200 439.20062382698205L205 454.5692777661027L210 467.8939431033971L215 479.0414841873637L220 487.900518472379L225 494.3825294162742L230 498.42275090836614L235 499.9808143910252L240 499.04115220896017L245 495.6131531560831L250 489.7310686657846L255 481.453670581933L260 470.8636639300383L265 458.0668605559752L270 443.1911218889968L275 426.38508139259795L280 407.8166594680802L285 387.6713856494094L290 366.15054485343916L295 343.469166207559L300 319.8538745497315L305 295.54062606802376L310 270.7723507043741L315 245.79652487891235L320 220.8626987873766L325 196.22000297804613L330 172.11465912165534L335 148.78751984585043L340 126.47166221534776L345 105.39005890294996L350 85.75335032030273L355 67.75773996853087L360 51.58303403771171L365 37.3908448428588L370 25.322976047093277L375 15.500005806315272L380 8.020081992128354L385 2.957941530749906L390 0.3641636563487509L395 0.264664540056998L400 2.6604383441545565L405 7.527547288728414L410 14.817360830056856L415 24.457041560926683L420 36.350272977929876L425 50.37822184412744L430 66.40072553147166L435 84.2576924794545L440 103.77070177705957L445 124.74478588552884L450 146.97037868956085L455 170.22540941266197L460 194.2775214749385L465 218.88639412323457L470 243.80614363666055L475 268.78778011545234L480 293.58169530574537L485 317.940156602736L490 341.6197823129821L495 364.3839734438303" fill="transparent" stroke="black"/></svg>